<svg xmlns="http://www.w3.org/2000/svg" xmlns:xlink="http://www.w3.org/1999/xlink" width="68.891" height="68.897" viewBox="0 0 68.891 68.897">
  <defs>
    <filter id="Rectangle_37" x="0" y="0" width="68.891" height="68.897" filterUnits="userSpaceOnUse">
      <feOffset dy="3" input="SourceAlpha"/>
      <feGaussianBlur stdDeviation="3" result="blur"/>
      <feFlood flood-opacity="0.161"/>
      <feComposite operator="in" in2="blur"/>
      <feComposite in="SourceGraphic"/>
    </filter>
  </defs>
  <g id="Group_17" data-name="Group 17" transform="translate(-1270 -225)">
    <g transform="matrix(1, 0, 0, 1, 1270, 225)" filter="url(#Rectangle_37)">
      <g id="Rectangle_37-2" data-name="Rectangle 37" transform="translate(9 6)" fill="#404e68" stroke="#404e68" stroke-width="1">
        <rect width="50.891" height="50.897" stroke="none"/>
        <rect x="0.5" y="0.5" width="49.891" height="49.897" fill="none"/>
      </g>
    </g>
    <g id="Union_3" data-name="Union 3" transform="translate(1286.897 240.653)" fill="#fff">
      <path d="M 34.58936309814453 40.74430084228516 L 0.5070741176605225 40.74430084228516 C 0.6094122529029846 37.13309860229492 1.820694804191589 33.72551345825195 4.025770664215088 30.85823059082031 C 5.13537073135376 29.4153995513916 6.460200786590576 28.1646900177002 7.963460445404053 27.14084053039551 C 9.489180564880371 26.10169982910156 11.16056060791016 25.32285118103027 12.93120098114014 24.8259105682373 L 14.26165103912354 24.45251083374023 L 13.00031089782715 23.88812065124512 C 8.604480743408203 21.92118072509766 5.764100551605225 17.5390796661377 5.764100551605225 12.72420024871826 C 5.764100551605225 9.459020614624023 7.035510540008545 6.389270305633545 9.344120979309082 4.080440521240234 C 11.65277099609375 1.771560430526733 14.72235107421875 0.5000004172325134 17.98740005493164 0.5000004172325134 C 21.25205039978027 0.5000004172325134 24.32135009765625 1.771550416946411 26.62988090515137 4.080430507659912 C 28.93843078613281 6.389310359954834 30.20980072021484 9.459060668945313 30.20980072021484 12.72420024871826 C 30.20980072021484 15.19595050811768 29.47601127624512 17.57694053649902 28.08776092529297 19.60979080200195 C 26.73183059692383 21.59531021118164 24.84412002563477 23.12596130371094 22.62870025634766 24.03625106811523 L 21.35085105895996 24.56130027770996 L 22.66875076293945 24.97570991516113 C 24.37738990783691 25.51296997070313 25.98565101623535 26.31553077697754 27.44886016845703 27.36107063293457 C 28.89344024658203 28.393310546875 30.16410064697266 29.63865089416504 31.22553062438965 31.0625 C 33.33184051513672 33.88801193237305 34.48971557617188 37.2255744934082 34.58936309814453 40.74430084228516 Z" stroke="none"/>
      <path d="M 34.0671501159668 40.24430084228516 C 33.8773307800293 37.01831436157227 32.76608657836914 33.96566009521484 30.82466125488281 31.3613395690918 C 29.79419136047363 29.9790210723877 28.56060028076172 28.77000999450684 27.15817070007324 27.76789093017578 C 25.73793983459473 26.75304985046387 24.17702102661133 25.97410011291504 22.51877021789551 25.45268058776855 L 19.88297080993652 24.62388038635254 L 22.43867111206055 23.57377052307129 C 24.56351089477539 22.7007007598877 26.3741512298584 21.23246955871582 27.67486000061035 19.32781982421875 C 29.00613021850586 17.3784008026123 29.70980072021484 15.09491062164307 29.70980072021484 12.72420024871826 C 29.70980072021484 9.59260082244873 28.49043083190918 6.64840030670166 26.27630043029785 4.433950424194336 C 24.06221008300781 2.219540357589722 21.11849021911621 1.000000476837158 17.98740005493164 1.000000476837158 C 14.8559103012085 1.000000476837158 11.91191101074219 2.219540357589722 9.697690963745117 4.43397045135498 C 7.483510494232178 6.648370265960693 6.264100551605225 9.592570304870605 6.264100551605225 12.72420024871826 C 6.264100551605225 17.34222984313965 8.988380432128906 21.54519081115723 13.2045202255249 23.43172073364258 L 15.72721099853516 24.56051063537598 L 13.06631088256836 25.30731010437012 C 11.34793090820313 25.78958129882813 9.725780487060547 26.54551124572754 8.24492073059082 27.55410003662109 C 6.785540580749512 28.54806137084961 5.49936056137085 29.76227951049805 4.422120571136475 31.16303062438965 C 2.386949777603149 33.80939865112305 1.223955035209656 36.93024826049805 1.029257416725159 40.24430084228516 L 34.0671501159668 40.24430084228516 M 35.09640121459961 41.24430084228516 L 6.072997962291993e-07 41.24430084228516 L 6.072997962291993e-07 41.24160003662109 C 6.072997962291993e-07 33.19715118408203 5.413100719451904 26.41658973693848 12.79609107971191 24.34451103210449 C 8.35676097869873 22.35811042785645 5.264100551605225 17.90238952636719 5.264100551605225 12.72420024871826 C 5.264100551605225 5.697000503540039 10.96020030975342 4.211425732592033e-07 17.98740005493164 4.211425732592033e-07 C 25.01370048522949 4.211425732592033e-07 30.70980072021484 5.697000503540039 30.70980072021484 12.72420024871826 C 30.70980072021484 18.04092025756836 27.44913101196289 22.59615135192871 22.8187313079834 24.49872970581055 C 29.93562126159668 26.73657035827637 35.09640121459961 33.38642883300781 35.09640121459961 41.24160003662109 L 35.09640121459961 41.24430084228516 Z" stroke="none" fill="#404e68"/>
    </g>
  </g>
</svg>
